<svg width="20" height="18" viewBox="0 0 20 18" fill="none" xmlns="http://www.w3.org/2000/svg">
<path d="M4.00218 5.42796C4.31032 2.34657 6.90324 0 10 0C13.0968 0 15.6897 2.34657 15.9978 5.42796L16.3105 8.55493C16.3461 8.91044 16.3639 9.08819 16.389 9.26265C16.5434 10.3316 16.9112 11.3587 17.4704 12.2827C17.5617 12.4335 17.6608 12.5821 17.8589 12.8794L18.8225 14.3247C19.7414 15.7031 20.2009 16.3923 19.9162 16.9242C19.6316 17.4561 18.8032 17.4561 17.1466 17.4561H2.85344C1.19677 17.4561 0.368431 17.4561 0.0837757 16.9242C-0.200879 16.3923 0.2586 15.7031 1.17756 14.3247L2.14107 12.8794C2.33925 12.5821 2.43834 12.4335 2.52961 12.2827C3.08885 11.3587 3.45659 10.3316 3.61096 9.26265C3.63616 9.08819 3.65393 8.91044 3.68948 8.55494L4.00218 5.42796Z" fill="#F8FAFC"/>
</svg>
