<svg width="21" height="20" viewBox="0 0 21 20" fill="none" xmlns="http://www.w3.org/2000/svg">
<path d="M17.5 10C17.5 7.5077 17.5 6.26155 16.9641 5.33334C16.613 4.72527 16.1081 4.22032 15.5 3.86924C14.5718 3.33334 13.3256 3.33334 10.8333 3.33334H10.5C7.69108 3.33334 6.28661 3.33334 5.27772 4.00747C4.84096 4.2993 4.46596 4.6743 4.17412 5.11106C3.5 6.11996 3.5 7.52442 3.5 10.3333V14.6667C3.5 15.6095 3.5 16.0809 3.79289 16.3738C4.08579 16.6667 4.55719 16.6667 5.5 16.6667H10.8333C13.3256 16.6667 14.5718 16.6667 15.5 16.1308C16.1081 15.7797 16.613 15.2748 16.9641 14.6667C17.5 13.7385 17.5 12.4923 17.5 10V10Z" stroke="#0C1524" stroke-width="2"/>
<path d="M7.875 8.33334L13.125 8.33334" stroke="#0C1524" stroke-width="2" stroke-linecap="round" stroke-linejoin="round"/>
<path d="M7.875 11.6667H10.5" stroke="#0C1524" stroke-width="2" stroke-linecap="round" stroke-linejoin="round"/>
</svg>
