<svg width="43" height="43" viewBox="0 0 43 43" fill="none" xmlns="http://www.w3.org/2000/svg">
<path fill-rule="evenodd" clip-rule="evenodd" d="M35.8334 19.7083C35.8334 14.6757 35.8334 12.1593 34.6256 10.3517C34.1027 9.56921 33.4309 8.89733 32.6483 8.37446C30.8407 7.16666 28.3244 7.16666 23.2917 7.16666H19.7084C14.6758 7.16666 12.1594 7.16666 10.3518 8.37446C9.5693 8.89733 8.89742 9.56921 8.37455 10.3517C7.16675 12.1593 7.16675 14.6757 7.16675 19.7083C7.16675 24.741 7.16675 27.2573 8.37455 29.0649C8.89742 29.8474 9.5693 30.5193 10.3518 31.0422C11.9309 32.0973 14.0509 32.2307 17.9167 32.2475V32.25L20.6057 37.6278C20.9742 38.3649 22.026 38.3649 22.3945 37.6278L25.0834 32.25V32.2475C28.9493 32.2307 31.0692 32.0973 32.6483 31.0422C33.4309 30.5193 34.1027 29.8474 34.6256 29.0649C35.8334 27.2573 35.8334 24.741 35.8334 19.7083ZM14.3334 21.5C15.3229 21.5 16.1251 20.6978 16.1251 19.7083C16.1251 18.7188 15.3229 17.9167 14.3334 17.9167C13.3439 17.9167 12.5417 18.7188 12.5417 19.7083C12.5417 20.6978 13.3439 21.5 14.3334 21.5ZM23.2917 19.7083C23.2917 20.6978 22.4896 21.5 21.5001 21.5C20.5106 21.5 19.7084 20.6978 19.7084 19.7083C19.7084 18.7188 20.5106 17.9167 21.5001 17.9167C22.4896 17.9167 23.2917 18.7188 23.2917 19.7083ZM30.4584 19.7083C30.4584 20.6978 29.6563 21.5 28.6667 21.5C27.6772 21.5 26.8751 20.6978 26.8751 19.7083C26.8751 18.7188 27.6772 17.9167 28.6667 17.9167C29.6563 17.9167 30.4584 18.7188 30.4584 19.7083Z" fill="#F8FAFC"/>
</svg>
