<svg width="20" height="21" viewBox="0 0 20 21" fill="none" xmlns="http://www.w3.org/2000/svg">
<path d="M3.56247 12.0251L9.45527 17.8375L9.45528 17.8375C9.63624 18.016 9.72672 18.1053 9.82924 18.1426C9.93965 18.1827 10.0607 18.1827 10.1711 18.1426C10.2736 18.1053 10.3641 18.016 10.5451 17.8375L16.4379 12.0251C18.0038 10.4805 18.196 8.01954 16.8889 6.25051L16.5226 5.7548C14.9055 3.56635 11.5321 3.92143 10.4061 6.3986C10.2477 6.74712 9.75264 6.74712 9.59422 6.3986C8.46824 3.92143 5.09481 3.56635 3.47773 5.7548L3.11145 6.25051C1.80428 8.01954 1.99649 10.4805 3.56247 12.0251Z" stroke="#F8FAFC" stroke-width="2"/>
</svg>
