<svg width="50" height="50" viewBox="0 0 50 50" fill="none" xmlns="http://www.w3.org/2000/svg">
<path d="M25.0023 27.3413C24.5392 27.3418 24.0864 27.2049 23.7011 26.9481C23.3158 26.6912 23.0154 26.3258 22.8377 25.8982C22.6601 25.4705 22.6132 24.9998 22.7031 24.5455C22.793 24.0912 23.0156 23.6738 23.3427 23.346C23.6698 23.0182 24.0868 22.7948 24.5409 22.704C24.995 22.6132 25.4658 22.6591 25.8938 22.8359C26.3218 23.0127 26.6878 23.3124 26.9454 23.6972C27.2031 24.082 27.3409 24.5345 27.3413 24.9976C27.342 25.6186 27.0959 26.2144 26.6572 26.6539C26.2186 27.0934 25.6233 27.3407 25.0023 27.3413ZM35.9264 24.9889C35.9269 25.452 36.0647 25.9046 36.3223 26.2893C36.58 26.6741 36.946 26.9738 37.374 27.1506C37.802 27.3274 38.2728 27.3733 38.7269 27.2825C39.181 27.1917 39.598 26.9683 39.9251 26.6405C40.2522 26.3127 40.4748 25.8953 40.5646 25.441C40.6545 24.9868 40.6077 24.516 40.43 24.0884C40.2524 23.6607 39.9519 23.2954 39.5666 23.0385C39.1813 22.7816 38.7285 22.6447 38.2654 22.6452C37.6445 22.6458 37.0492 22.8931 36.6105 23.3326C36.1719 23.7722 35.9258 24.368 35.9264 24.9889ZM14.0735 25.011C14.073 24.5479 13.9353 24.0954 13.6776 23.7106C13.4199 23.3258 13.054 23.0261 12.6259 22.8493C12.1979 22.6725 11.7271 22.6266 11.273 22.7174C10.8189 22.8082 10.402 23.0316 10.0748 23.3594C9.74773 23.6872 9.52515 24.1046 9.43527 24.5589C9.34539 25.0132 9.39223 25.4839 9.56987 25.9115C9.74752 26.3392 10.048 26.7046 10.4333 26.9615C10.8186 27.2183 11.2714 27.3552 11.7345 27.3547C12.3555 27.3541 12.9508 27.1068 13.3894 26.6673C13.8281 26.2278 14.0741 25.632 14.0735 25.011Z" fill="#F8FAFC"/>
</svg>
