<svg width="31" height="31" viewBox="0 0 31 31" fill="none" xmlns="http://www.w3.org/2000/svg">
<path d="M16.9531 15.5C16.9531 15.7874 16.8679 16.0683 16.7082 16.3073C16.5486 16.5463 16.3216 16.7325 16.0561 16.8425C15.7906 16.9525 15.4984 16.9813 15.2165 16.9252C14.9346 16.8691 14.6757 16.7307 14.4725 16.5275C14.2693 16.3243 14.1309 16.0654 14.0748 15.7835C14.0187 15.5016 14.0475 15.2094 14.1575 14.9439C14.2675 14.6784 14.4537 14.4514 14.6927 14.2918C14.9317 14.1321 15.2126 14.0469 15.5 14.0469C15.8854 14.0469 16.255 14.2 16.5275 14.4725C16.8 14.745 16.9531 15.1146 16.9531 15.5ZM10.1719 14.0469C9.88447 14.0469 9.60353 14.1321 9.36456 14.2918C9.1256 14.4514 8.93935 14.6784 8.82936 14.9439C8.71938 15.2094 8.6906 15.5016 8.74667 15.7835C8.80274 16.0654 8.94114 16.3243 9.14436 16.5275C9.34758 16.7307 9.6065 16.8691 9.88838 16.9252C10.1703 16.9813 10.4624 16.9525 10.728 16.8425C10.9935 16.7325 11.2204 16.5463 11.3801 16.3073C11.5398 16.0683 11.625 15.7874 11.625 15.5C11.625 15.1146 11.4719 14.745 11.1994 14.4725C10.9269 14.2 10.5573 14.0469 10.1719 14.0469ZM20.8281 14.0469C20.5407 14.0469 20.2598 14.1321 20.0208 14.2918C19.7818 14.4514 19.5956 14.6784 19.4856 14.9439C19.3756 15.2094 19.3469 15.5016 19.4029 15.7835C19.459 16.0654 19.5974 16.3243 19.8006 16.5275C20.0038 16.7307 20.2628 16.8691 20.5446 16.9252C20.8265 16.9813 21.1187 16.9525 21.3842 16.8425C21.6497 16.7325 21.8767 16.5463 22.0364 16.3073C22.196 16.0683 22.2812 15.7874 22.2812 15.5C22.2812 15.1146 22.1282 14.745 21.8556 14.4725C21.5831 14.2 21.2135 14.0469 20.8281 14.0469ZM28.0938 15.5C28.0942 17.6743 27.5318 19.8116 26.4611 21.704C25.3905 23.5965 23.8481 25.1794 21.9842 26.2989C20.1203 27.4184 17.9983 28.0362 15.8247 28.0923C13.6511 28.1484 11.5001 27.6407 9.58094 26.6188L5.45769 27.9932C5.11631 28.1071 4.74997 28.1236 4.39973 28.0409C4.04949 27.9583 3.72919 27.7797 3.47473 27.5253C3.22026 27.2708 3.0417 26.9505 2.95904 26.6003C2.87639 26.25 2.89291 25.8837 3.00676 25.5423L4.38117 21.4191C3.48284 19.7301 2.98108 17.8586 2.914 15.9468C2.84691 14.0349 3.21626 12.1329 3.994 10.3852C4.77174 8.63736 5.93744 7.08972 7.4026 5.85971C8.86777 4.62969 10.5939 3.74963 12.45 3.28632C14.306 2.82302 16.2433 2.78864 18.1146 3.18581C19.986 3.58297 21.7422 4.40124 23.2501 5.5785C24.758 6.75576 25.9779 8.26107 26.8171 9.98017C27.6564 11.6993 28.093 13.587 28.0938 15.5ZM26.1562 15.5C26.1558 13.8654 25.7793 12.2528 25.0559 10.787C24.3324 9.32113 23.2815 8.04139 21.9843 7.04672C20.6872 6.05205 19.1786 5.36913 17.5753 5.0508C15.972 4.73246 14.3169 4.78724 12.7381 5.2109C11.1594 5.63455 9.69924 6.41573 8.47069 7.49399C7.24215 8.57225 6.27813 9.91869 5.65321 11.4291C5.0283 12.9396 4.75925 14.5736 4.86687 16.2046C4.97449 17.8357 5.45591 19.4201 6.27387 20.8354C6.34252 20.9542 6.38514 21.0862 6.39892 21.2228C6.4127 21.3593 6.39732 21.4972 6.35379 21.6273L4.84375 26.1562L9.37266 24.6462C9.4713 24.6126 9.5748 24.5954 9.67902 24.5953C9.84916 24.5956 10.0162 24.6408 10.1634 24.7261C11.7834 25.6634 13.6217 26.1575 15.4933 26.1587C17.3649 26.1599 19.2038 25.6681 20.8249 24.7329C22.4461 23.7976 23.7924 22.4519 24.7283 20.8311C25.6642 19.2103 26.1567 17.3716 26.1562 15.5Z" fill="#F8FAFC"/>
</svg>
