<svg width="23" height="23" viewBox="0 0 23 23" fill="none" xmlns="http://www.w3.org/2000/svg">
<path d="M19.1665 9.58333L19.8736 10.2904L20.5807 9.58333L19.8736 8.87623L19.1665 9.58333ZM2.83317 17.25C2.83317 17.8023 3.28088 18.25 3.83317 18.25C4.38546 18.25 4.83317 17.8023 4.83317 17.25L2.83317 17.25ZM15.0819 15.0821L19.8736 10.2904L18.4594 8.87623L13.6677 13.6679L15.0819 15.0821ZM19.8736 8.87623L15.0819 4.08456L13.6677 5.49877L18.4594 10.2904L19.8736 8.87623ZM19.1665 8.58333L9.83317 8.58333L9.83317 10.5833L19.1665 10.5833L19.1665 8.58333ZM2.83317 15.5833L2.83317 17.25L4.83317 17.25L4.83317 15.5833L2.83317 15.5833ZM9.83317 8.58333C5.96717 8.58333 2.83317 11.7173 2.83317 15.5833L4.83317 15.5833C4.83317 12.8219 7.07174 10.5833 9.83317 10.5833L9.83317 8.58333Z" fill="#F8FAFC"/>
</svg>
