<svg width="20" height="20" viewBox="0 0 20 20" fill="none" xmlns="http://www.w3.org/2000/svg">
<path d="M16.6667 8.33333L17.3738 9.04044L18.0809 8.33333L17.3738 7.62623L16.6667 8.33333ZM2.33332 15C2.33332 15.5523 2.78104 16 3.33332 16C3.88561 16 4.33332 15.5523 4.33332 15L2.33332 15ZM13.2071 13.2071L17.3738 9.04044L15.9596 7.62623L11.7929 11.7929L13.2071 13.2071ZM17.3738 7.62623L13.2071 3.45956L11.7929 4.87377L15.9596 9.04044L17.3738 7.62623ZM16.6667 7.33333L9.33332 7.33333L9.33332 9.33333L16.6667 9.33333L16.6667 7.33333ZM2.33332 14.3333L2.33332 15L4.33332 15L4.33332 14.3333L2.33332 14.3333ZM9.33332 7.33333C5.46733 7.33333 2.33332 10.4673 2.33332 14.3333L4.33332 14.3333C4.33332 11.5719 6.5719 9.33333 9.33332 9.33333L9.33332 7.33333Z" fill="#33363F"/>
</svg>
