<svg width="22" height="21" viewBox="0 0 22 21" fill="none" xmlns="http://www.w3.org/2000/svg">
<path d="M18.3333 10.5C18.3333 7.69108 18.3333 6.28661 17.6592 5.27772C17.3674 4.84096 16.9924 4.46596 16.5556 4.17412C15.5467 3.5 14.1422 3.5 11.3333 3.5H11C7.87256 3.5 6.30884 3.5 5.23161 4.32659C4.95428 4.53939 4.70604 4.78763 4.49324 5.06496C3.66666 6.14218 3.66666 7.7059 3.66666 10.8333V15.5C3.66666 16.4428 3.66666 16.9142 3.95955 17.2071C4.25244 17.5 4.72385 17.5 5.66666 17.5H11.3333C14.1422 17.5 15.5467 17.5 16.5556 16.8259C16.9924 16.534 17.3674 16.159 17.6592 15.7223C18.3333 14.7134 18.3333 13.3089 18.3333 10.5V10.5Z" stroke="#33363F" stroke-width="2"/>
<path d="M8.25 8.75L13.75 8.75" stroke="#33363F" stroke-width="2" stroke-linecap="round" stroke-linejoin="round"/>
<path d="M8.25 12.25H11" stroke="#33363F" stroke-width="2" stroke-linecap="round" stroke-linejoin="round"/>
</svg>
