<svg width="30" height="28" viewBox="0 0 30 28" fill="none" xmlns="http://www.w3.org/2000/svg">
<path d="M6.77316 5.50162L9.52976 2.74502C9.92576 2.34902 10.5678 2.34902 10.9638 2.74502L15.2936 7.07481C15.6896 7.4708 15.6896 8.11283 15.2936 8.50883L12.4089 11.3935C11.9782 11.8242 11.8715 12.4821 12.1438 13.0269C13.7184 16.1761 16.272 18.7297 19.4212 20.3043C19.966 20.5767 20.6239 20.4699 21.0546 20.0392L23.9393 17.1545C24.3353 16.7585 24.9773 16.7585 25.3733 17.1545L29.7031 21.4843C30.0991 21.8803 30.0991 22.5224 29.7031 22.9183L26.9465 25.675C24.8056 27.8159 21.4162 28.0568 18.994 26.2401L14.3531 22.7594C12.5852 21.4335 11.0147 19.863 9.68869 18.095L6.208 13.4541C4.39137 11.0319 4.63224 7.64254 6.77316 5.50162Z" fill="#F8FAFC"/>
</svg>
