<svg width="21" height="19" viewBox="0 0 21 19" fill="none" xmlns="http://www.w3.org/2000/svg">
<path d="M17.0266 9.41231C17 7.35804 16.9866 6.3309 16.6117 5.53633C16.1961 4.65564 15.4766 3.95455 14.5854 3.56191C13.7814 3.20767 12.7542 3.22099 10.7 3.24762L10.1836 3.25432C7.64178 3.28727 6.37089 3.30375 5.43369 3.86712C4.83641 4.22616 4.34208 4.73348 3.99865 5.33986C3.45976 6.29135 3.47624 7.56224 3.50919 10.104L3.55726 13.8119C3.56961 14.7648 3.57579 15.2413 3.87565 15.5334C4.17552 15.8256 4.65196 15.8195 5.60485 15.8071L10.8619 15.7389C12.9162 15.7123 13.9433 15.699 14.7379 15.324C15.6186 14.9084 16.3197 14.1889 16.7123 13.2977C17.0665 12.4937 17.0532 11.4666 17.0266 9.41231V9.41231Z" stroke="#0C1524" stroke-width="2"/>
<path d="M7.70851 7.97146L12.78 7.90571" stroke="#0C1524" stroke-width="2" stroke-linecap="round" stroke-linejoin="round"/>
<path d="M7.74901 11.0943L10.2848 11.0614" stroke="#0C1524" stroke-width="2" stroke-linecap="round" stroke-linejoin="round"/>
</svg>
