<svg width="21" height="22" viewBox="0 0 21 22" fill="none" xmlns="http://www.w3.org/2000/svg">
<path d="M17.5 10.6667C17.5 7.85774 17.5 6.45328 16.8259 5.44439C16.534 5.00763 16.159 4.63262 15.7223 4.34079C14.7134 3.66667 13.3089 3.66667 10.5 3.66667V3.66667C7.69108 3.66667 6.28661 3.66667 5.27772 4.34079C4.84096 4.63262 4.46596 5.00763 4.17412 5.44439C3.5 6.45328 3.5 7.85774 3.5 10.6667V16.3333C3.5 17.2761 3.5 17.7475 3.79289 18.0404C4.08579 18.3333 4.55719 18.3333 5.5 18.3333H10.1667C13.2941 18.3333 14.8578 18.3333 15.935 17.5067C16.2124 17.2939 16.4606 17.0457 16.6734 16.7684C17.5 15.6912 17.5 14.1274 17.5 11V10.6667Z" stroke="#33363F" stroke-width="2"/>
<path d="M7.875 9.16667L13.125 9.16667" stroke="#33363F" stroke-width="2" stroke-linecap="round" stroke-linejoin="round"/>
<path d="M7.875 12.8333H10.5" stroke="#33363F" stroke-width="2" stroke-linecap="round" stroke-linejoin="round"/>
</svg>
