<svg width="25" height="24" viewBox="0 0 25 24" fill="none" xmlns="http://www.w3.org/2000/svg">
<path d="M20.8332 12C20.8332 8.22876 20.8332 6.34315 19.6616 5.17157C19.6616 5.17157 19.6616 5.17157 19.6616 5.17157C18.49 4 16.6044 4 12.8332 4H12.1665C8.39527 4 6.50965 4 5.33808 5.17157C4.1665 6.34315 4.1665 8.22876 4.1665 12V18C4.1665 18.9428 4.1665 19.4142 4.4594 19.7071C4.75229 20 5.22369 20 6.1665 20H12.8332C16.6044 20 18.49 20 19.6616 18.8284C19.6616 18.8284 19.6616 18.8284 19.6616 18.8284C20.8332 17.6569 20.8332 15.7712 20.8332 12V12Z" stroke="#F8FAFC" stroke-width="2"/>
<path d="M9.375 10L15.625 10" stroke="#F8FAFC" stroke-width="2" stroke-linecap="round" stroke-linejoin="round"/>
<path d="M9.375 14H12.5" stroke="#F8FAFC" stroke-width="2" stroke-linecap="round" stroke-linejoin="round"/>
</svg>
